<?xml version="1.0" encoding="iso-8859-1"?>
<!-- Generator: Adobe Illustrator 18.0.0, SVG Export Plug-In . SVG Version: 6.00 Build 0)  -->
<!DOCTYPE svg PUBLIC "-//W3C//DTD SVG 1.1//EN" "http://www.w3.org/Graphics/SVG/1.1/DTD/svg11.dtd">
<svg xmlns="http://www.w3.org/2000/svg" xmlns:xlink="http://www.w3.org/1999/xlink" version="1.1" id="Capa_1" x="0px" y="0px" viewBox="0 0 494.794 494.794" style="enable-background:new 0 0 494.794 494.794;" xml:space="preserve" width="512px" height="512px">
<g>
	<path d="M426.64,335.644c-6.846,0-12.408,5.559-12.408,12.41v32.783c0,6.854,5.563,12.41,12.408,12.41   c6.852,0,12.408-5.557,12.408-12.41v-32.783C439.048,341.203,433.491,335.644,426.64,335.644z" fill="#4e646e"/>
	<path d="M280.448,141.142c6.465-6.466,6.465-16.937,0-23.397c-32.395-32.413-85.152-32.429-117.579,0.015   c-6.461,6.466-6.461,16.932,0,23.397c3.232,3.233,7.464,4.846,11.701,4.846c4.23,0,8.463-1.612,11.696-4.846   c19.518-19.517,51.266-19.501,70.783-0.015C263.515,147.603,273.987,147.603,280.448,141.142z" fill="#4e646e"/>
	<path d="M117.047,108.001c4.232,0,8.469-1.616,11.697-4.849c51.188-51.253,134.561-51.232,185.814-0.031   c6.461,6.461,16.932,6.461,23.396,0c6.461-6.465,6.461-16.931,0-23.397c-64.148-64.113-168.489-64.099-232.607,0.035   c-6.46,6.46-6.46,16.932,0,23.393C108.579,106.385,112.816,108.001,117.047,108.001z" fill="#4e646e"/>
	<path d="M191.405,181.391c0,16.707,13.539,30.26,30.246,30.26c16.705,0,30.248-13.553,30.248-30.26   c0-16.711-13.543-30.249-30.248-30.249C204.944,151.142,191.405,164.68,191.405,181.391z" fill="#4e646e"/>
	<path d="M449.44,292.068h-88.918c-1.645-14.783-14.039-26.339-29.26-26.339H29.588C13.253,265.729,0,278.98,0,295.316v138.246   c0,16.334,13.253,29.582,29.588,29.582h301.675c15.205,0,27.6-11.537,29.26-26.305h88.918c25.014,0,45.354-20.34,45.354-45.354   v-54.064C494.794,312.408,474.454,292.068,449.44,292.068z M461.702,391.486c0,6.772-5.49,12.264-12.262,12.264h-88.59v-78.592   h88.59c6.772,0,12.262,5.492,12.262,12.264V391.486z" fill="#4e646e"/>
</g>
<g>
</g>
<g>
</g>
<g>
</g>
<g>
</g>
<g>
</g>
<g>
</g>
<g>
</g>
<g>
</g>
<g>
</g>
<g>
</g>
<g>
</g>
<g>
</g>
<g>
</g>
<g>
</g>
<g>
</g>
</svg>
