<?xml version="1.0" encoding="iso-8859-1"?>
<!-- Generator: Adobe Illustrator 17.1.0, SVG Export Plug-In . SVG Version: 6.00 Build 0)  -->
<!DOCTYPE svg PUBLIC "-//W3C//DTD SVG 1.1//EN" "http://www.w3.org/Graphics/SVG/1.1/DTD/svg11.dtd">
<svg xmlns="http://www.w3.org/2000/svg" xmlns:xlink="http://www.w3.org/1999/xlink" version="1.1" id="Capa_1" x="0px" y="0px" viewBox="0 0 464.983 464.983" style="enable-background:new 0 0 464.983 464.983;" xml:space="preserve" width="512px" height="512px">
<g>
	<path d="M168.071,83.237c-48.482,0-87.926,39.443-87.926,87.926c0,4.143,3.358,7.5,7.5,7.5s7.5-3.357,7.5-7.5   c0-40.211,32.714-72.926,72.926-72.926c4.142,0,7.5-3.357,7.5-7.5S172.213,83.237,168.071,83.237z" fill="#3c5460"/>
	<path d="M47.431,178.664c4.142,0,7.5-3.357,7.5-7.5c0-62.386,50.754-113.14,113.139-113.14c4.142,0,7.5-3.357,7.5-7.5   s-3.358-7.5-7.5-7.5c-70.656,0-128.139,57.483-128.139,128.14C39.931,175.307,43.289,178.664,47.431,178.664z" fill="#3c5460"/>
	<path d="M168.071,123.45c-26.309,0-47.713,21.404-47.713,47.713c0,4.143,3.358,7.5,7.5,7.5s7.5-3.357,7.5-7.5   c0-18.038,14.675-32.713,32.713-32.713c4.142,0,7.5-3.357,7.5-7.5S172.213,123.45,168.071,123.45z" fill="#3c5460"/>
	<path d="M293.819,384.838c48.482,0,87.926-39.443,87.926-87.926c0-4.143-3.358-7.5-7.5-7.5s-7.5,3.357-7.5,7.5   c0,40.211-32.714,72.926-72.926,72.926c-4.142,0-7.5,3.357-7.5,7.5S289.677,384.838,293.819,384.838z" fill="#3c5460"/>
	<path d="M414.458,289.412c-4.142,0-7.5,3.357-7.5,7.5c0,62.385-50.754,113.139-113.139,113.139c-4.142,0-7.5,3.357-7.5,7.5   s3.358,7.5,7.5,7.5c70.656,0,128.139-57.482,128.139-128.139C421.958,292.77,418.6,289.412,414.458,289.412z" fill="#3c5460"/>
	<path d="M293.819,344.625c26.309,0,47.713-21.404,47.713-47.713c0-4.143-3.358-7.5-7.5-7.5s-7.5,3.357-7.5,7.5   c0,18.038-14.675,32.713-32.713,32.713c-4.142,0-7.5,3.357-7.5,7.5S289.677,344.625,293.819,344.625z" fill="#3c5460"/>
	<path d="M379.91,127.043c1.464,1.464,3.384,2.196,5.303,2.196s3.839-0.732,5.303-2.196c2.929-2.93,2.929-7.678,0-10.607   l-8.236-8.236c-2.929-2.928-7.678-2.928-10.606,0c-2.929,2.93-2.929,7.678,0,10.607L379.91,127.043z" fill="#3c5460"/>
	<path d="M348.547,74.466c-2.929-2.928-7.678-2.928-10.606,0c-2.929,2.93-2.929,7.678,0,10.607l8.236,8.236   c1.464,1.464,3.384,2.196,5.303,2.196s3.839-0.732,5.303-2.196c2.929-2.93,2.929-7.678,0-10.607L348.547,74.466z" fill="#3c5460"/>
	<path d="M462.786,95.451L369.531,2.196C368.125,0.79,366.218,0,364.228,0s-3.897,0.79-5.303,2.196l-87.951,87.951l-3.758-3.758   c-2.929-2.928-7.678-2.928-10.606,0L10.761,332.238c-14.349,14.349-14.349,37.695,0,52.045L80.7,454.222   c7.174,7.174,16.598,10.761,26.022,10.761s18.848-3.587,26.022-10.761l245.848-245.848c1.407-1.407,2.197-3.314,2.197-5.304   s-0.79-3.896-2.197-5.304l-3.758-3.758l87.951-87.95c1.407-1.407,2.197-3.314,2.197-5.304S464.193,96.859,462.786,95.451z    M364.228,183.402l-51.404-51.404c-2.929-2.928-7.678-2.928-10.606,0c-2.929,2.93-2.929,7.678,0,10.607l60.465,60.465   L122.138,443.614c-8.5,8.5-22.332,8.501-30.831,0l-69.939-69.938c-8.5-8.501-8.5-22.332,0-30.832L261.913,102.3l3.749,3.749   c0.003,0.003,0.006,0.007,0.009,0.01s0.007,0.006,0.01,0.009l15.324,15.324c2.929,2.928,7.678,2.928,10.606,0   c2.929-2.93,2.929-7.678,0-10.607l-10.03-10.029l82.647-82.648l82.648,82.648L364.228,183.402z" fill="#3c5460"/>
</g>
<g>
</g>
<g>
</g>
<g>
</g>
<g>
</g>
<g>
</g>
<g>
</g>
<g>
</g>
<g>
</g>
<g>
</g>
<g>
</g>
<g>
</g>
<g>
</g>
<g>
</g>
<g>
</g>
<g>
</g>
</svg>
